<svg id="Capa_1" enable-background="new 0 0 512.002 512.002" height="512" viewBox="0 0 512.002 512.002" width="512" xmlns="http://www.w3.org/2000/svg"><g><g><g><g><circle cx="256.001" cy="377.002" r="45"/><path d="m256.001 242.002c-74.439 0-135 60.561-135 135s60.561 135 135 135 135-60.561 135-135-60.561-135-135-135zm0 210c-41.355 0-75-33.645-75-75s33.645-75 75-75 75 33.645 75 75-33.645 75-75 75z"/></g><g><path d="m445.603 53.478-60-50c-3.408-2.84-7.899-4.03-12.265-3.238-4.366.787-8.16 3.468-10.361 7.319l-117.003 204.756c3.318-.2 6.659-.313 10.027-.313 33.726 0 65.115 10.179 91.273 27.614l101.54-166.815c3.863-6.347 2.498-14.566-3.211-19.323z"/><path d="m238.725 164.535-89.7-156.976c-2.201-3.852-5.995-6.532-10.361-7.319-4.368-.792-8.857.398-12.266 3.238l-60 50c-5.708 4.757-7.073 12.976-3.21 19.322l101.54 166.815c13.052-8.7 27.404-15.594 42.702-20.315z"/></g></g></g><g><path d="m275.601 100.002 57.143-100h-153.486l57.143 100z"/></g></g></svg>